PathFileType	4	(X/Y/Z)	C:\Users\°ÂÌØÂü\Desktop\20210112\bx_y_0_1801-Unnamed.trc
DataRate	CameraRate	NumFrames	NumMarkers	Units	OrigDataRate	OrigDataStartFrame	OrigNumFrames
50.00	50.00	       8	0	mm	50.00	620	       708
Frame#	Time	
		

620	12.380	-679.53271	-64.41585	1553.02222	-697.80225	-49.40870	718.94391	-587.38831	-1.85306	800.76044	-635.07971	281.80054	877.93707	-581.39209	216.99217	814.40155	-692.97736	83.58707	577.22900	-688.37537	275.56775	750.13446	-688.03064	142.57892	576.30768	-726.57135	245.00101	578.08521	-670.20752	20.49852	520.34607	-769.58948	253.77347	504.80774	-674.61731	204.71140	533.22949	-720.39276	250.23370	642.05072	-665.85211	-68.08739	162.23656	-710.74213	151.82376	216.67838	-882.63641	296.19785	144.62160	-674.31854	55.27101	157.72517	-602.85559	17.96442	166.61552	-594.55530	222.87230	173.25008	-667.62024	299.14743	159.81450	-630.48438	307.45209	162.39525	-561.07056	262.12442	166.22557	-528.20660	304.21338	146.40298	-686.11890	124.71637	1852.98865	-696.57611	300.23700	1530.96179	-624.89063	-79.20090	158.82629	-517.86365	-72.68504	142.55000	-795.21771	171.04358	184.64990	-771.01172	220.86461	205.37456	-787.77429	100.40760	1060.33276	-766.85193	-3.47268	208.04486	-793.33270	57.78154	176.04311	-766.51453	-32.13120	490.35904	-561.93744	-41.97825	164.88863	-875.85034	-78.68372	141.27127	-674.86786	172.64149	156.24107	-703.19061	-26.88012	615.54260	-718.15546	-23.37898	568.98969				-589.36182	-6.96153	1049.04102	-578.65448	222.03922	1067.55322	-643.97211	-70.79880	864.16595	-715.29822	78.75064	216.16733	
621	12.400	-679.13959	-64.52898	1552.95337	-697.72168	-49.45903	719.11469	-587.38831	-1.85306	800.76044	-635.11646	281.88104	877.79865	-581.07916	216.80443	814.57947	-692.75360	83.47773	577.13208	-688.25470	275.75037	750.58374	-688.03064	142.57892	576.30768	-726.54138	244.93503	578.19269	-670.21307	20.24969	520.34479	-769.46375	253.86873	504.87659	-674.60999	204.70677	533.28247	-720.39276	250.23370	642.05072	-665.86572	-68.13148	162.35555	-710.74213	151.82376	216.67838	-882.47406	296.15048	144.65424	-674.34125	55.18512	157.86334	-602.83484	17.89799	166.51091	-594.42139	222.69725	173.31291	-667.67651	299.09720	159.71210	-630.59186	307.66296	162.23633	-561.05255	262.20197	166.13171	-528.07770	304.24625	146.45256	-685.39447	124.65104	1852.98193	-695.90521	299.99966	1530.80957	-624.95551	-79.23823	158.70340	-517.83313	-72.78593	142.41550	-795.38147	171.05818	184.74115	-770.93524	221.02902	205.46782	-787.38605	100.57507	1060.43604	-766.94708	-3.46717	207.84801	-793.38153	57.66843	175.93054	-766.56989	-32.05834	490.24139	-561.91736	-42.03629	164.97438	-875.82855	-78.79845	141.17526	-674.72333	172.53732	156.38060	-703.06055	-26.95530	615.54077	-718.05939	-23.43654	569.10638				-589.08258	-6.98312	1049.01575	-578.15942	221.86041	1067.72510	-643.83813	-70.95196	864.18207	-715.29822	78.75064	216.16733	
622	12.420	-678.81702	-64.33467	1552.94202	-697.20801	-49.87646	719.01746	-587.30243	-2.04401	800.48322	-635.11646	281.88104	877.79865	-580.89044	217.08403	814.48956	-692.81342	83.22698	577.02661	-688.21661	276.08212	750.53577	-687.79816	142.55560	576.16260	-726.61481	244.81334	578.08936	-670.12073	20.26183	520.30560	-769.25519	253.68279	504.62521	-674.41211	204.66473	533.35071	-720.39276	250.23370	642.05072	-665.88098	-68.13206	162.42892	-710.80463	151.72783	216.56786	-882.55450	296.05902	144.50241	-674.05237	55.25003	157.27806	-602.88141	17.91349	166.54716	-594.51178	222.76276	173.30977	-667.68237	299.23212	159.82066	-630.56714	307.49155	162.46413	-561.05255	262.20197	166.13171	-528.11450	304.37653	146.40186	-684.77582	124.42943	1852.94202	-695.74585	300.15573	1531.06970	-624.82654	-79.51709	158.59175	-517.88654	-72.50443	142.75540	-795.32361	171.01727	184.92813	-770.91028	220.78781	205.42075	-787.25739	100.38559	1060.48206	-766.86652	-3.49379	208.17130	-793.38617	57.74610	175.91103	-766.34344	-32.13169	490.32983	-561.74695	-41.70781	164.96411	-875.99139	-78.70409	141.37393	-674.85730	172.39333	156.63312	-702.98822	-26.81746	615.46375	-718.04578	-23.43700	569.12726	-604.22290	111.62460	1438.27893	-588.59534	-6.60518	1049.20508	-578.23199	222.01146	1067.59290	-643.61145	-70.76740	864.08478	-715.43347	78.86593	216.28024	
623	12.440	-678.12805	-64.59944	1553.02039	-697.30243	-49.83530	718.91895	-586.95685	-2.17689	800.65997	-635.03284	281.79474	877.70001	-580.89044	217.08403	814.48956	-693.08014	83.32176	577.45380	-688.08917	275.87823	750.39740	-687.79816	142.55560	576.16260	-726.61481	244.81334	578.08936	-670.05505	20.36378	520.14258	-769.33905	253.84703	504.82565	-674.46680	204.76122	533.31946	-720.24188	250.15845	641.98761	-665.88208	-68.03896	162.46606	-710.86285	151.71657	216.57498	-882.69525	296.16147	144.63420	-674.10315	55.18948	157.38675	-602.92096	18.05951	166.59375	-594.51178	222.76276	173.30977	-667.64490	299.16895	159.80751	-630.43787	307.45258	162.25533	-561.05255	262.20197	166.13171	-528.20660	304.21338	146.40298	-684.39630	124.41598	1853.02319	-695.46918	300.17892	1530.87830	-624.95551	-79.23823	158.70340	-517.95190	-72.72466	142.87093	-795.30273	171.06058	184.51224	-771.06219	220.86551	205.22435	-787.06128	100.18652	1060.57166	-766.89545	-3.46430	207.94958	-793.46814	57.80254	175.93021	-766.30109	-32.20358	490.40237	-562.02612	-42.15084	164.88222	-875.99139	-78.70409	141.37393	-674.79297	172.87506	155.95757	-702.85468	-26.80848	615.27063	-717.89813	-23.55610	569.22137				-588.40607	-6.66520	1049.11292	-577.64557	221.82913	1067.46143	-643.28857	-70.91610	864.23639	-715.43347	78.86593	216.28024	
624	12.460	-677.44379	-64.44231	1552.90308	-696.97949	-49.65960	719.11896	-586.73096	-2.32415	800.69940	-634.99005	281.78870	877.52197	-580.89044	217.08403	814.48956	-692.84119	83.67200	577.29901	-688.05463	275.41287	750.24225	-688.03064	142.57892	576.30768	-726.20203	245.13588	578.26898	-670.00140	20.24446	520.30762	-769.23157	253.67041	504.90594	-674.41211	204.66473	533.35071	-720.13867	250.20290	642.09747	-665.72498	-68.14420	162.10756	-710.91022	151.58037	216.52681	-882.51794	296.10651	144.56905	-674.11389	55.13242	157.50096	-602.83484	17.89799	166.51091	-594.51178	222.76276	173.30977	-667.60913	299.07315	159.77840	-630.65625	307.46790	162.41103	-561.05255	262.20197	166.13171	-527.99017	304.09348	146.41525	-683.51477	124.45114	1853.17053	-694.90363	300.21384	1530.79395	-624.99237	-79.16421	158.73042	-517.85669	-72.49967	142.41357	-795.27142	171.11308	184.76904	-770.87891	220.84505	205.43419	-786.75482	100.37717	1060.58240	-766.86652	-3.49379	208.17130	-793.38367	57.82308	176.00342	-766.10956	-32.30785	490.26260	-562.04779	-42.23244	164.80357	-875.97961	-78.88999	141.32271	-675.15607	173.19321	155.63841	-702.67090	-26.95310	615.39124	-717.89813	-23.55610	569.22137	-603.39313	111.42058	1437.89307	-588.07080	-6.45470	1049.22241	-577.43701	221.58495	1067.09961	-643.33099	-70.80383	863.95844	-715.57324	78.86596	216.42953	
625	12.480	-676.98822	-64.50213	1552.92261	-696.90546	-49.84582	718.92981	-585.98816	-2.43709	800.68750	-634.90643	281.70236	877.42328	-580.65857	217.05959	814.45935	-692.53381	83.22126	577.30804	-687.92072	275.34665	750.16815	-687.79816	142.55560	576.16260	-726.34802	244.89095	578.20654	-669.64203	20.25135	520.45349	-769.18939	253.44121	504.76981	-674.35883	204.77847	533.31122	-720.13867	250.20290	642.09747	-665.79022	-68.20083	162.18320	-710.80463	151.72783	216.56786	-882.59625	296.22037	144.63243	-673.80835	55.48468	157.29457	-602.89807	17.96178	166.61203	-594.42419	222.74881	173.39789	-667.62793	299.16077	159.70590	-630.50952	307.55527	162.52267	-561.07233	261.99545	166.16713	-528.16980	304.08307	146.45369	-682.91321	124.14062	1853.02258	-694.46106	300.23093	1531.08423	-625.14575	-79.24390	158.50249	-517.82056	-72.48955	142.64763	-795.18030	171.07829	184.82272	-770.88348	220.83678	205.42191	-786.68109	100.09058	1060.75549	-766.90723	-3.44825	208.08426	-793.28320	57.66151	175.97736	-766.18640	-32.34628	490.21411	-561.82861	-41.80624	164.89317	-875.85034	-78.68372	141.27127	-674.86255	172.57680	156.21255	-702.85468	-26.80848	615.27063	-717.77795	-23.59348	569.11273	-602.63629	111.20881	1438.04089	-588.03351	-6.14155	1048.88892	-576.99408	221.44614	1066.99927	-643.26587	-70.79677	864.03845	-715.29822	78.75064	216.16733	
626	12.500	-676.66913	-64.48395	1552.93701	-696.91217	-49.78756	718.98907	-585.32617	-2.96186	800.52338	-634.53363	281.79773	877.47449	-580.55817	217.08327	814.32092	-692.75085	83.23408	577.17798	-687.92072	275.34665	750.16815	-687.54022	142.45779	576.08954	-726.26605	244.89717	578.18097	-669.90350	20.15424	520.43036	-769.00201	253.60490	504.83057	-674.19330	204.56184	533.03015	-720.13867	250.20290	642.09747	-665.72369	-68.18253	162.75375	-710.89691	151.49910	216.40703	-882.65179	296.02704	144.46056	-673.88403	55.43208	157.54277	-602.83905	17.95700	166.56354	-594.55530	222.87230	173.25008	-667.68237	299.23212	159.82066	-630.48438	307.45209	162.39525	-561.05426	262.07303	166.07327	-528.07770	304.24625	146.45256	-682.56122	124.11191	1852.97327	-694.19910	299.68900	1530.76465	-625.03546	-79.30431	158.56306	-517.84039	-72.58090	142.78177	-795.21631	171.04521	184.71793	-770.96552	220.91132	205.53069	-786.11938	100.06624	1060.86987	-766.92120	-3.36164	208.05135	-793.40002	57.77356	175.93742	-766.06976	-32.46594	490.34607	-561.79871	-42.12999	165.19064	-875.84143	-78.79816	141.14836	-675.03748	172.77806	156.08540	-702.84277	-26.70840	615.28180	-717.77136	-23.53655	569.16052	-602.40381	111.18695	1437.99792	-587.59186	-6.76422	1048.87634	-576.60254	221.37560	1066.85046	-642.93903	-70.79727	864.00195	-715.43347	78.86593	216.28024	
627	12.520	-675.90527	-64.79842	1552.85010	-696.84662	-49.57993	718.90631	-585.48651	-2.39507	800.42230	-633.84570	282.06049	877.87787	-580.35760	217.23283	814.35120	-692.36829	82.91918	576.99811	-687.80536	275.29782	750.09283	-687.79816	142.55560	576.16260	-726.20575	244.96313	578.23297	-669.77179	20.14521	520.33215	-768.99536	253.48807	504.86780	-674.23773	204.60487	533.08331	-720.06702	250.32347	642.19525	-665.84216	-67.98010	162.10690	-710.89691	151.49910	216.40703	-882.52686	295.95218	144.47594	-674.13837	55.20696	157.53363	-603.00519	18.02297	166.50201	-594.37305	222.90205	173.29405	-667.62793	299.16077	159.70590	-630.47607	307.40366	162.22322	-561.00616	262.12451	166.18317	-528.11450	304.37653	146.40186	-681.62506	124.03436	1852.88696	-693.89154	299.96979	1530.89966	-625.13605	-79.32091	158.44495	-517.98248	-72.62397	142.75522	-795.22791	171.02806	184.74034	-770.75244	220.88235	205.36102	-786.07690	100.06297	1060.88171	-766.86652	-3.49379	208.17130	-793.25922	57.77776	175.94827	-766.01642	-32.42185	490.35248	-562.02612	-42.15084	164.88222	-875.82367	-78.74851	141.22487	-675.09033	172.80179	156.02643	-702.58875	-27.01695	615.52521	-717.70593	-23.51341	568.94586	-602.08057	110.84747	1437.81323	-587.57721	-6.70814	1048.80933	-576.51801	221.50342	1066.91187	-642.52374	-70.70229	863.88806	-715.43347	78.86593	216.28024	
